<svg id="Layer_1" data-name="Layer 1" xmlns="http://www.w3.org/2000/svg" viewBox="0 0 1197.82 826.54"><defs><style>.cls-1{fill:#e3e3f1}.cls-2{fill:#5c62ab}.cls-3{fill:#90cdf0}.cls-4{fill:#8b8fc4}.cls-5{fill:#62a6ce}.cls-7{fill:#5c62ac}.cls-8{fill:#656bb1}</style></defs><path class="cls-1" d="M907.19 400.67a4 4 0 0 1-1.17-1.91 7.34 7.34 0 0 1 .67-5.38q15.94-30.09 31.87-60.19a4.57 4.57 0 0 1 3.64-2.76 3.14 3.14 0 0 1 3 2.56q8.73 29.55 16.53 59.34a7.85 7.85 0 0 1-.74 5.46c-.91 1.71-2.25 2.72-3.59 2.72q-24.21 0-48.38.81a2.64 2.64 0 0 1-1.83-.65zm35-66.06a.7.7 0 0 0-.45-.16 1.09 1.09 0 0 0-.89.67q-15.93 30.11-31.85 60.19a1.83 1.83 0 0 0-.16 1.31.78.78 0 0 0 .73.63q24.22-.81 48.43-.87c.47 0 .76-.47.87-.67a1.93 1.93 0 0 0 .18-1.32q-7.85-29.79-16.56-59.32a1 1 0 0 0-.32-.46z"/><path class="cls-2" d="M519.64 364.62q-13.45-18.15-27.19-36.11c-1.44-1.87-5.14-.56-6.65 2.34q-13.8 26.28-27.36 52.65c-1.36 2.65.55 4.79 3.42 3.9q27.21-8.44 54.53-16.51c2.88-.89 4.69-4.33 3.25-6.27z"/><path class="cls-3" d="M745.1 309.61a820.46 820.46 0 0 0-222.17-73.1c-10.82-2-10-14.89-5.83-22.25 5.22-9.27 15.26-18.11 26.68-17.11A820.81 820.81 0 0 1 766 270.25c9.57 5.62 8.6 18.68 4.08 27.2S755.25 314 745.1 309.61zM541.89 200.73c-9.35-.83-17.68 6.23-21.83 14-4.73 8.82-2.55 17 4.76 18.24A820.33 820.33 0 0 1 747 306c6.58 3.32 15.71-1.09 20.42-10s3.23-18.91-3.35-22.24a820.56 820.56 0 0 0-222.18-73.03z"/><path class="cls-4" d="M753 358.49a11.9 11.9 0 0 0-1.45-.26l-14.85 7c-.41.47-.8 1-1.18 1.48zm4.2 1.87l-.92-.51-23.11 10.78c-.19.4-.4.8-.57 1.2q12.3-5.74 24.6-11.47zm3.71 2.1l-.91-.52q-14.29 6.62-28.58 13.27c-.09.35-.17.7-.24 1zm3.71 2.12l-.91-.53-33 15.26c0 .32 0 .63-.05.95q16.96-7.86 33.96-15.68zm3.69 2.13c-.36-.21-.55-.31-.91-.53l-36.69 16.88c0 .29.06.59.11.87q18.73-8.61 37.49-17.22zm3.69 2.16l-.91-.53q-19.86 9.06-39.7 18.16c.09.27.16.55.26.81q20.15-9.22 40.35-18.44zm3.66 2.18l-.9-.54-42 19.13c.14.25.28.5.43.73q21.22-9.67 42.47-19.32zm3.66 2.2l-.9-.55q-21.81 9.85-43.59 19.74c.22.22.46.41.69.61q21.89-9.9 43.8-19.8zm3.68 2.21l-.9-.54q-22 9.9-44 19.83l.91.51zm3.59 2.24l-.89-.55q-22 9.83-44 19.69l.92.52q22.01-9.84 43.97-19.66zm3.63 2.3l-.9-.56L745.46 399l.91.53q21.92-9.81 43.85-19.53zm3.6 2.24l-.88-.57-43.79 19.42.91.53q21.89-9.7 43.76-19.38zm3.6 2.3l-.88-.57q-21.85 9.61-43.71 19.27l.91.54q21.84-9.63 43.68-19.24zm3.58 2.31l-.88-.57q-21.82 9.56-43.62 19.14l.9.53zm3.58 2.34l-.88-.58-43.53 19 .89.54q21.77-9.48 43.52-18.96zm3.56 2.36l-.87-.59-43.46 18.86.9.55q21.72-9.42 43.43-18.82zm3.55 2.37l-.87-.58q-21.69 9.35-43.37 18.72l.89.55q21.66-9.34 43.35-18.69zm3.53 2.4l-.87-.6-43.28 18.59.89.56q21.63-9.28 43.26-18.55zm3.52 2.41l-.86-.59-43.2 18.44.89.56zm3.51 2.44l-.86-.6-43.11 18.3.89.57zm3.5 2.45l-.86-.6-43 18.17.88.57zm3.49 2.48l-.86-.62-42.93 18 .87.58q21.47-8.96 42.92-17.96zm3.47 2.49l-.86-.62-42.85 17.9.87.58zm3.46 2.51l-.85-.62-42.76 17.76.87.59zm3.44 2.53l-.85-.62-42.66 17.63.87.59zm3.39 2.55l-.84-.63-42.58 17.5.87.59zm3.46 2.57l-.84-.63-42.48 17.36.86.6zm3.41 2.59l-.84-.63q-21.21 8.6-42.39 17.22l.86.61zm3.39 2.66l-.84-.64q-21.15 8.54-42.3 17.09l.86.61zm3.37 2.58l-.83-.65-42.2 17 .85.61zm3.37 2.65l-.83-.66q-21.06 8.43-42.11 16.83l.85.62zm3.35 2.66l-.83-.65-42 16.68.84.63zm3.33 2.69l-.82-.67q-21 8.28-41.92 16.56l.84.63zm3.32 2.7l-.81-.67L827.36 453l.84.63q20.91-8.13 41.8-16.35zm3.31 2.72l-.81-.67-41.73 16.29.84.64q20.85-8.11 41.7-16.26zm3.29 2.74l-.81-.67-41.63 16.16.84.64q20.81-8.04 41.6-16.13zm3.28 2.76l-.8-.68-41.54 16 .83.65q20.76-7.95 41.51-15.97zm3.27 2.78l-.81-.68-41.43 15.89.83.66zm3.25 2.8l-.8-.69-41.34 15.77.83.65q20.66-7.81 41.31-15.73zm3.23 2.82l-.79-.7q-20.62 7.8-41.24 15.64l.82.66q20.58-7.78 41.21-15.6zm3.22 2.83l-.79-.7-41.13 15.51.81.66q20.57-7.71 41.11-15.47zm3.21 2.85l-.79-.7q-20.52 7.68-41 15.37l.81.68zm3.19 2.87c-.32-.28-.48-.42-.79-.71Q878 469.38 857.53 477l.81.68q20.46-7.6 40.91-15.23zm3.17 2.89l-.78-.71q-20.42 7.56-40.83 15.12l.81.68q20.38-7.53 40.8-15.09zm3.16 2.91l-.78-.72q-20.35 7.5-40.72 15l.8.69q20.36-7.46 40.7-14.97zm3.15 2.93l-.78-.73q-20.31 7.44-40.62 14.86l.8.69q20.31-7.38 40.6-14.82zm3.12 2.94c-.3-.29-.46-.43-.76-.73q-20.26 7.38-40.52 14.74l.8.69q20.25-7.32 40.48-14.7zm3.15 2.96l-.77-.73Q894 483.66 873.79 491l.8.7zm3.07 2.99l-.76-.74q-20.16 7.25-40.31 14.47l.79.71q20.15-7.2 40.28-14.44zm3.08 2.99l-.76-.74q-20.08 7.19-40.19 14.35l.78.71q20.1-7.12 40.17-14.32zm3.07 3.02l-.76-.74q-20 7.11-40.09 14.22c.32.28.47.43.78.71q20.04-7.06 40.07-14.19zm3.05 3.04l-.75-.75q-20 7-40 14.09l.77.72q20.02-7.01 39.98-14.06zm3.03 3.05l-.74-.75q-19.93 7-39.87 14l.77.73q19.94-6.98 39.84-13.98zm3.02 3.07l-.74-.76q-19.87 6.93-39.76 13.84l.77.73q19.88-6.87 39.73-13.81zm3.01 3.09l-.74-.76q-19.83 6.87-39.65 13.71c.3.3.45.44.76.73q19.83-6.81 39.63-13.68zm2.98 3.11l-.73-.77q-19.77 6.81-39.54 13.59l.76.74q19.76-6.76 39.51-13.56zm2.83 3.17c-.2-.28-.42-.54-.64-.8q-19.68 6.74-39.38 13.44l.76.75q19.64-6.68 39.26-13.39zm1.86 3.51c-.12-.3-.23-.61-.36-.9q-19.21 6.54-38.45 13l.76.74Q925 514.59 944 508.12zm1.08 3.79c-.06-.32-.13-.64-.2-1q-18.32 6.2-36.63 12.35l.75.75q18-6.01 36.08-12.1zm.45 4c0-.34 0-.67-.06-1q-17.09 5.75-34.18 11.45l.74.75q16.77-5.57 33.5-11.2zm-.11 4.19c0-.35 0-.7.06-1.05q-15.57 5.21-31.17 10.37l.74.75q15.19-5.01 30.37-10.07zm-.74 4.39c.08-.37.16-.73.23-1.1l-27.59 9.11.73.76q13.32-4.36 26.63-8.77zm-1.49 4.63c.16-.39.33-.77.47-1.17-9.33 3.07-14 4.6-23.35 7.65l.73.77c8.87-2.89 13.31-4.37 22.15-7.25zm-2.64 5.01q.42-.61.81-1.29c-7.2 2.35-10.8 3.53-18 5.86.3.26.59.5.9.72zm-3.96 4.4l-8.14 2.62a10.89 10.89 0 0 0 8.14-2.62z"/><path class="cls-3" d="M749.81 520.05q-31.69-21.25-65-39.73c-24.15-13-48.72-24.78-73.93-35.54a908.446 908.446 0 0 0-71.61-25.92c-8.65-2.26-17.68 2.66-21.65 10.28s-.59 15.73 7.27 18.15a909.675 909.675 0 0 1 71.6 25.92 914.125 914.125 0 0 1 73.94 35.54q33.35 18.54 65 39.72c6.79 4.63 15.36 2.41 19.22-5.41 3.77-7.63 2.35-17.72-4.84-23.01z"/><path class="cls-5" d="M991 710.76c-5-8-10.15-16-15.47-23.81a939.204 939.204 0 0 0-37.12-50.32q-16-19.65-33-38.4c-3.68-4-9.17-2.49-12.13 3.23s-2.26 13.45 1.42 17.46q17 18.81 33 38.41 19.43 24.57 37.12 50.32 8 11.73 15.47 23.81c2.93 4.7 7.59 4 10.55-1.69s3.05-14.31.16-19.01zm-51.71-322.37a842.37 842.37 0 0 0-125.44-92.68 1.92 1.92 0 0 1-.33-2.55c.52-1 1.52-1.45 2.22-1a842.37 842.37 0 0 1 125.44 92.68 2.46 2.46 0 0 1 .16 2.79c-.52.96-1.44 1.31-2.05.76z"/><path class="cls-3" d="M1102.85 499.76q-7.47-12.06-15.45-23.82-17.73-25.83-37.09-50.35a822.94 822.94 0 0 0-134.4-131.12c-4.29-3.27-10.51-.74-13.88 5.64s-2.61 14.19 1.67 17.47a823 823 0 0 1 134.41 131.11q19.41 24.58 37.08 50.35 8 11.74 15.46 23.82c2.93 4.71 8 3.36 11.38-3s3.75-15.39.82-20.1z"/><path class="cls-5" d="M781.93 41.81c-13.37-4.92-26.9-9.41-40.52-13.59q-23.26-6.93-46.8-12.71c-8.81-1.78-17.84 3-21.88 10.82s-.93 16.24 7.19 18.18q23.57 5.79 46.79 12.71c13.62 4.18 27.15 8.67 40.52 13.58 8.52 2.77 17.67-1.83 21.64-9.5 4.13-7.91.87-16.63-6.94-19.49z"/><path d="M614.67 421.87a822.92 822.92 0 0 0-204.12-52.48c-.82-.1-1.13-.87-.68-1.73a2.54 2.54 0 0 1 2.29-1.39 822.32 822.32 0 0 1 204.11 52.49 1.46 1.46 0 0 1 .57 2.12 1.8 1.8 0 0 1-2.17.99zM213 296A820.36 820.36 0 0 0 .81 372.68c-.81.43-1 0-.54-1a7 7 0 0 1 2.37-2.53 820.9 820.9 0 0 1 212.2-76.72c.84-.17 1.1.47.6 1.44A4.26 4.26 0 0 1 213 296z" fill="#91cef0"/><path class="cls-5" d="M628.36 116.25a862.32 862.32 0 0 0-109.16-16.07 795.62 795.62 0 0 0-272.13 28.63 862.58 862.58 0 0 0-110.35 41.59c-14.2 7.09-26.55 22.36-34.21 35-3.87 6.38-5.21 24.2 7.9 15a861.51 861.51 0 0 1 110.34-41.59 795.92 795.92 0 0 1 272.13-28.64 862.23 862.23 0 0 1 109.17 16.08c14.24 2.16 27.64-8.81 34.21-20.3 5.74-10.03 5.13-26.13-7.9-29.7z"/><path class="cls-2" d="M1196.92 760.72a941.39 941.39 0 0 0-17.73-68.74 837.76 837.76 0 0 0-52.44-128.55c-6.83-15.2-19.7-.92-24 5.92-7.34 11.62-9.52 31.79-3.11 45.33a838.06 838.06 0 0 1 52.44 128.54 945.258 945.258 0 0 1 17.74 68.74c.75 16.21 15 4.73 18.18-2.42 6.06-13.54 12.15-33.03 8.92-48.82z"/><path class="cls-7" d="M903.77 120.72a874.61 874.61 0 0 0-97.88-49.11 811.13 811.13 0 0 0-260-59.2 853.66 853.66 0 0 0-111.72 2.45c-13.7 1.29-26.26 12.62-32.83 23.8-5.19 8.83-2.48 22.18 10.29 20.07a851.8 851.8 0 0 1 111.71-2.44 811.12 811.12 0 0 1 260.06 59.19 876.32 876.32 0 0 1 97.88 49.11c11 5.72 24.57-.94 29.87-11.33 5.37-10.61 2.92-25.65-7.38-32.54z"/><path class="cls-2" d="M552.46 217.24c-16.48-3.06-33-5.69-49.6-7.91a834.32 834.32 0 0 0-137.3-5c-17.08 1-34.06 2.52-51.07 4.44-5.51.67-12.76 6.53-16.19 13s-1.74 11.11 3.77 10.44c17-1.93 34-3.41 51.07-4.44a835.42 835.42 0 0 1 137.3 5c16.62 2.23 33.11 4.86 49.6 7.92 5.31 1 12.37-3.32 15.8-9.8s1.93-12.62-3.38-13.65z"/><path class="cls-5" d="M1054.44 336.66q-16.95-18.72-34.8-36.5a850.09 850.09 0 0 0-104.95-86.45q-20.72-14-42.05-27c-4.62-2.76-10.91-.1-14.09 6s-2 13.23 2.61 16q21.38 13 42 27a851.15 851.15 0 0 1 104.95 86.45q17.9 17.83 34.8 36.51c3.63 4.06 9.14 2.42 12.32-3.64s2.83-14.3-.79-18.37z"/><path class="cls-2" d="M966.08 191.25c-3.87 7.75-13.78 12.54-21.08 7.05-7.59-5.68-8.12-17.31-4.37-25.54 3.25-7.14 14.08-12.06 20.94-6.71 7.56 5.95 8.67 16.86 4.51 25.2z"/><path class="cls-8" d="M662.92 361.14c-10.21-4.9-10-17.94-5.35-26.62 4.94-9.18 16.58-17.92 26.61-13.7s9.64 18.55 5 27.27c-4.88 9.16-15.51 16.96-26.26 13.05zm19.39-36.79c-9-3.17-17.79 4.1-22 11.28-3.71 6.35-3.35 18.92 4.39 22.08 8.44 3.43 17.72-3.27 21.75-10.85 3.87-7.21 4.36-18.31-4.14-22.51z"/><path class="cls-3" d="M790.16 569.77c-3 5.87-9.17 7.33-14 3.56s-6.56-11.34-3.59-17.22 9.48-7.81 14.35-4 6.21 11.78 3.24 17.66zm266.84 127c-3.8 7.19-9.21 8.35-12.22 2.72s-2.49-15.9 1.3-23.1 9.43-8.58 12.44-3 2.27 16.18-1.52 23.38z"/><path class="cls-7" d="M1017.94 527.47c-3.91 7.38-10.13 9.3-14 4.37s-3.87-14.83 0-22.21 10.27-9.45 14.12-4.52 3.8 14.97-.12 22.36z"/><path class="cls-5" d="M866.41 592.43c-4.55-4.48-5.57-13.39-2.09-20.12s10.17-8.76 14.68-4.31 5.28 13.8 1.79 20.53-9.79 8.38-14.38 3.9zm12.21-23.6c-4.26-4.19-10.5-2.3-13.76 4s-2.31 14.64 1.95 18.83 10.24 2.66 13.5-3.63 2.57-15.03-1.69-19.2zM260.29 309.44c-6.61 1-9.07-3.9-5.42-11.21s12-14.28 18.65-15.33 9 4.23 5.32 11.56-11.95 13.95-18.55 14.98zm12.8-25.67c-6.19 1-14 7.49-17.45 14.33s-1.11 11.46 5.07 10.49 13.94-7.17 17.36-14 1.2-11.8-4.98-10.82zM639.61 84.11c-6.22-1.33-8.35-8-4.83-14.78s11.38-11.18 17.6-9.85 8.48 7.88 5 14.67-11.55 11.29-17.77 9.96zM652 60.26c-5.82-1.25-13.17 2.86-16.47 9.21S634.21 82.06 640 83.3s13.28-3 16.58-9.31S657.8 61.5 652 60.26z"/><path class="cls-3" d="M571.81 165.6c-3.86 7.31-11.94 12.36-18 11.34s-7.89-7.74-4-15.05 11.92-12.44 18-11.41 7.87 7.81 4 15.12z"/><path class="cls-2" d="M652.19 510.82a832.47 832.47 0 0 0-181-67.58c-5.6-1.33-8.15-6.45-5.53-11.69s9.45-8.66 15.05-7.32a832 832 0 0 1 181 67.58c5.09 2.65 7 9.3 4.34 14.55a10.09 10.09 0 0 1-13.86 4.46zm-171.84-85.89c-5.21-1.24-11.53 1.91-14 6.78s-.08 9.64 5.13 10.88a831.87 831.87 0 0 1 181 67.58 9.39 9.39 0 0 0 12.91-4.17c2.44-4.87.69-11-4-13.5a832.15 832.15 0 0 0-181.04-67.57z"/><path class="cls-3" d="M1138.82 620.6c-2.93-7.94-1.51-17.38 2.26-24.68 3.85-7.48 9.72-8.56 12.15-2.58 3.07 7.6 1.41 17.39-2.36 24.69-3.87 7.48-9.35 8.66-12.05 2.57zm13.94-26.39c-2.52-5.7-7.64-4.62-11.36 2.41s-4.64 17.39-2.11 23.09 7.56 4.63 11.28-2.4 4.72-17.39 2.19-23.1z"/><path class="cls-4" d="M720.67 131.16a12.15 12.15 0 0 0-1.8.07c-3.81 2-5.72 3-9.55 5a18.59 18.59 0 0 0-1.43 1.62c5.11-2.69 7.69-4.04 12.78-6.69zm4.63 1.09l-1-.35c-7.52 3.91-11.31 5.9-18.91 10-.18.37-.35.75-.5 1.13 8.22-4.42 12.3-6.57 20.41-10.78zm4.02 1.43l-1-.35q-12.23 6.3-24.35 12.82c-.06.32-.11.63-.15.95 8.48-4.52 16.96-9.02 25.5-13.42zm4.01 1.46l-1-.36q-14.39 7.38-28.61 15c0 .28 0 .55.07.83q14.72-7.86 29.54-15.47zm4.01 1.47l-1-.36q-16.07 8.2-32 16.74a7.76 7.76 0 0 0 .3.72q16.28-8.71 32.7-17.1zm3.99 1.5l-1-.37q-17.28 8.85-34.42 18a7.68 7.68 0 0 0 .55.59q17.37-9.27 34.87-18.22zm3.99 1.52l-1-.38q-18 9.15-35.75 18.6c.29.14.6.27.91.39q17.86-9.45 35.84-18.61zm3.98 1.54l-1-.39q-18 9.12-35.8 18.54l1 .35q17.83-9.4 35.8-18.5zm3.97 1.56l-1-.39q-18 9.06-35.76 18.41l1 .36q17.82-9.33 35.76-18.38zm3.96 1.58l-1-.39q-17.94 9-35.72 18.29l1 .37q17.8-9.29 35.72-18.27zm3.95 1.6l-1-.4q-17.91 8.94-35.66 18.18l1 .37q17.77-9.23 35.66-18.15zm3.95 1.63l-1-.41q-17.89 8.9-35.62 18.07l1 .37q17.74-9.16 35.62-18.03zm3.93 1.64l-1-.4q-17.87 8.82-35.57 17.94l1 .38q17.72-9.1 35.57-17.92zm3.94 1.67l-1-.41q-17.84 8.76-35.52 17.83l1 .38q17.69-9.04 35.52-17.8zm3.9 1.69l-1-.42q-17.82 8.72-35.47 17.71l1 .39q17.68-8.99 35.47-17.68zm3.91 1.71l-1-.42q-17.79 8.64-35.42 17.59l1 .4q17.61-8.94 35.42-17.57zm3.9 1.75l-1-.43Q766 164.15 748.38 173l1 .4q17.62-8.83 35.33-17.4zm3.88 1.73l-1-.43q-17.75 8.53-35.32 17.36l1 .41q17.6-8.82 35.32-17.34zm3.88 1.78l-1-.44q-17.71 8.48-35.27 17.25l1 .41q17.57-8.73 35.27-17.22zm3.87 1.79l-1-.44q-17.68 8.41-35.22 17.13l1 .42q17.54-8.71 35.22-17.11zm3.86 1.81l-1-.44q-17.67 8.36-35.17 17l1 .42q17.53-8.63 35.17-16.98zm3.85 1.89l-.95-.45q-17.64 8.3-35.11 16.9l1 .43q17.44-8.64 35.06-16.88zm3.83 1.81l-.94-.46q-17.61 8.24-35.06 16.79l1 .43q17.42-8.57 35-16.76zm3.83 1.87l-.94-.46q-17.58 8.19-35 16.68l1 .43q17.38-8.47 34.94-16.65zm3.82 1.9l-.94-.47q-17.55 8.13-35 16.57l1 .44q17.41-8.41 34.94-16.54zm3.81 1.92l-.94-.47q-17.52 8.07-34.89 16.45l1 .44q17.32-8.35 34.83-16.42zm3.8 1.94l-.94-.48q-17.49 8-34.84 16.34l.95.45q17.36-8.31 34.83-16.31zm3.78 1.96l-.93-.48q-17.46 8-34.78 16.22l.94.46q17.33-8.25 34.77-16.2zm3.78 1.98l-.93-.49Q812.33 185.8 795 194l1 .47q17.27-8.2 34.7-16.09zm3.76 2l-.92-.49q-17.41 7.85-34.67 16l.94.46q17.27-8.13 34.65-15.97zm3.76 2.03l-.92-.5q-17.38 7.78-34.62 15.88l.94.47q17.24-8.07 34.6-15.85zm3.78 2.04l-.92-.51q-17.34 7.74-34.55 15.78l.93.47q17.17-8.01 34.54-15.74zm3.7 2.06l-.92-.51c-11.57 5.08-23 10.34-34.5 15.66l.94.48c11.45-5.31 22.92-10.56 34.48-15.63zm3.72 2.08l-.92-.51c-11.54 5-23 10.27-34.43 15.55l.93.49c11.43-5.28 22.88-10.49 34.42-15.53zm3.71 2.11l-.91-.52c-11.53 5-23 10.19-34.38 15.44l.93.49c11.41-5.24 22.84-10.42 34.36-15.41zm3.7 2.12l-.91-.53c-11.51 5-22.92 10.12-34.32 15.33l.93.5c11.39-5.2 22.8-10.34 34.3-15.3zm3.69 2.18l-.91-.53c-11.48 4.93-22.88 10-34.26 15.22l.93.5C837.65 205 849 199.88 860.52 195zm3.67 2.13l-.9-.54c-11.46 4.89-22.84 10-34.2 15.11.37.2.56.3.92.51 11.35-5.13 22.73-10.21 34.18-15.08zm3.67 2.18l-.9-.54c-11.44 4.86-22.8 9.9-34.14 15l.92.51c11.33-5.09 22.68-10.12 34.12-14.97zm3.65 2.2l-.9-.54c-11.42 4.82-22.75 9.82-34.07 14.89l.92.51c11.31-5.05 22.64-10.05 34.05-14.86zm3.35 2.35a8.17 8.17 0 0 0-.69-.63C862.8 208 851.51 213 840.25 218l.91.52q16.77-7.52 33.7-14.66zm2.07 2.89c-.12-.25-.25-.51-.4-.76q-16.38 6.86-32.53 14.11l.9.52q15.93-7.11 32.03-13.87zm1.07 3.31c-.06-.29-.12-.57-.19-.85q-15.18 6.34-30.22 13l.91.53q14.73-6.47 29.5-12.68zm.33 3.66v-.93q-13.56 5.73-27 11.63l.91.53q12.96-5.74 26.09-11.23zm-.59 4.03c.09-.35.16-.69.23-1-9.13 3.83-13.73 5.81-23 9.88l.9.55c8.81-3.9 13.19-5.79 21.87-9.43zm-1.6 4.14c.13-.25.24-.5.36-.76-7.11 3-10.69 4.54-17.89 7.68l.59.36a3.65 3.65 0 0 0 .34.18c6.57-2.87 9.85-4.28 16.35-7zm-6.14 6.77a16.11 16.11 0 0 0 2.72-2.1c-3.64 1.55-5.46 2.33-9.12 3.91a10.5 10.5 0 0 0 3-.34z"/><path class="cls-1" d="M1011.69 596.9a5.33 5.33 0 0 1-.82-2.28 9.53 9.53 0 0 1 1-5.67q6.84-12.94 13.7-25.89c.9-1.71 2.14-2.62 3.31-2.44s2 1.41 2.31 3.3q2 14.48 3.9 29a9.94 9.94 0 0 1-1 5.75c-.9 1.7-2.11 2.58-3.25 2.37-7-1.28-10.5-1.9-17.6-3.09a2.26 2.26 0 0 1-1.55-1.05zm16.77-31.7a.63.63 0 0 0-.37-.25c-.14 0-.49 0-.8.6q-6.85 12.93-13.7 25.89a2.34 2.34 0 0 0-.24 1.38c0 .22.15.74.56.8 7.12 1.17 10.65 1.78 17.64 3 .4.07.69-.38.79-.58a2.41 2.41 0 0 0 .26-1.4q-1.92-14.48-3.95-28.93a1.39 1.39 0 0 0-.19-.51zM692.69 412.33c-3.59-7.05-5.38-10.56-9-17.55-1.24-2.42-4.7-1.79-6.21 1.09-4.38 8.36-6.53 12.49-10.75 20.6-1.46 2.8.15 5.73 2.88 5.3 7.9-1.24 11.84-1.85 19.73-3a4.74 4.74 0 0 0 3.35-6.44z"/><path class="cls-5" d="M676.23 127.59c-4-6-6-9-10-14.85-1.4-2-5-.91-6.56 2-4.41 8.42-6.65 12.68-11.17 21.29-1.57 3 .15 5.53 3.09 4.62 8.51-2.66 12.75-3.95 21.2-6.44 2.89-.87 4.82-4.54 3.44-6.62z"/><path class="cls-2" d="M842.4 548.8c-1.83-5.41-2.76-8.11-4.61-13.49-.74-2.14-3-2.19-4.09-.12-2.72 5.24-4.06 7.83-6.7 12.95-1 2-.09 4.64 1.7 4.72l11.31.55c1.79.09 3.12-2.47 2.39-4.61z"/><path class="cls-8" d="M1072.24 396.47a4.27 4.27 0 0 1-.78-1.84 7.28 7.28 0 0 1 .68-4.61c3.46-6.61 5.18-9.88 8.56-16.36.7-1.34 1.72-2 2.73-1.88s1.78 1.16 2.09 2.66c1.47 7.25 2.19 10.9 3.58 18.25a7.24 7.24 0 0 1-.67 4.58c-.71 1.36-1.73 2.07-2.73 1.9-4.81-.8-7.24-1.17-12.14-1.88a2.08 2.08 0 0 1-1.32-.82zm10.76-20.55a.23.23 0 0 0-.14-.08c-.08 0-.19 0-.29.19-3.38 6.48-5.1 9.76-8.57 16.37a.73.73 0 0 0-.07.48c0 .12.08.26.22.28 4.9.71 7.33 1.09 12.15 1.9.14 0 .23-.1.29-.2a.78.78 0 0 0 .07-.49c-1.39-7.35-2.11-11-3.58-18.25a.55.55 0 0 0-.08-.2z"/><path class="cls-5" d="M879.88 280.35c-2-5.27-3-7.9-4.94-13.11-.79-2.07-3.29-1.8-4.49.48l-7.64 14.44c-1.21 2.3-.23 4.89 1.77 4.67 5-.56 7.57-.83 12.58-1.33 1.98-.19 3.5-3.06 2.72-5.15z"/><path class="cls-1" d="M1078.83 812.94c-2.16-5.83-3.26-8.73-5.53-14.49a853.76 853.76 0 0 0-48.6-101.18q-6.75-11.79-14-23.35c-1.54-2.48-4.19-1.86-5.88 1.36s-1.77 7.8-.22 10.29q7.2 11.52 14 23.35a853 853 0 0 1 48.6 101.18c2.26 5.76 3.37 8.66 5.53 14.48 1 2.84 3.24 2.57 4.92-.65s2.23-8.15 1.18-10.99zM469.87 456.41c-5.68-1.39-8.53-2.06-14.24-3.34A861.28 861.28 0 0 0 349 436.79a695.98 695.98 0 0 0-26.61-1.72 8.28 8.28 0 0 0-7.28 4c-1.12 2.32.33 4.24 3.2 4.37 8.88.4 17.77 1 26.62 1.72a863 863 0 0 1 106.67 16.28c5.71 1.28 8.56 1.95 14.24 3.34 2.77.67 5.89-.59 7-2.91s-.21-4.79-2.97-5.46zM914.49 64.23l-5.23-2.93A853.84 853.84 0 0 0 778.51 3.51c-4.1-1.38-6.16-2.06-10.29-3.39a2.37 2.37 0 0 0-2.83 1 1.7 1.7 0 0 0 1.19 2.35c4.12 1.33 6.18 2 10.29 3.39A852.87 852.87 0 0 1 907.62 64.7c2.09 1.17 3.14 1.75 5.22 2.93a1.87 1.87 0 0 0 2.67-.66 2.18 2.18 0 0 0-1.02-2.74z"/><path class="cls-8" d="M317 363.36a803.89 803.89 0 0 0-221.9 34.45c-7.17 2.23-9.94-2-5.95-9.43 4.23-7.89 11.63-14.93 20.23-18.1a804.27 804.27 0 0 1 221.94-34.45c7.19 0 9.63 6.4 5.79 14-3.44 6.73-12.24 13.28-20.11 13.53zm-208 7.74c-8.09 3-15.07 9.6-19 17-3.76 7-1.15 11 5.6 8.9a804.33 804.33 0 0 1 221.94-34.45c6.78 0 15.2-5.64 18.91-12.8s1.32-13.17-5.46-13.13A804 804 0 0 0 109 371.1z"/><path d="M242.82 216.61c-3.52-2.52-5.27-3.76-8.78-6.17-1.45-1-5.31 1.64-6.95 4.74l-9.92 18.71c-1.64 3.09.18 4.32 3.27 2.22a1742.3 1742.3 0 0 1 18.69-12.54c3.09-2.05 5.14-5.92 3.69-6.96z" fill="#d0d2d3"/></svg>