<svg id="Layer_1" data-name="Layer 1" xmlns="http://www.w3.org/2000/svg" viewBox="0 0 1197.82 826.54"><defs><style>.cls-1{fill:#e3e3f1;}.cls-2{fill:#5c62ab;}.cls-3{fill:#90cdf0;}.cls-4{fill:#8b8fc4;}.cls-5{fill:#62a6ce;}.cls-6{fill:#91cef0;}.cls-7{fill:#5c62ac;}.cls-8{fill:#656bb1;}.cls-9{fill:#d0d2d3;}</style></defs><title>Hero-Executives-Corrected</title><path class="cls-1" d="M907.19,400.67a4,4,0,0,1-1.17-1.91,7.34,7.34,0,0,1,.67-5.38q15.94-30.09,31.87-60.19a4.57,4.57,0,0,1,3.64-2.76,3.14,3.14,0,0,1,3,2.56q8.73,29.55,16.53,59.34a7.85,7.85,0,0,1-.74,5.46c-.91,1.71-2.25,2.72-3.59,2.72q-24.21,0-48.38.81A2.64,2.64,0,0,1,907.19,400.67Zm35-66.06a.7.7,0,0,0-.45-.16,1.09,1.09,0,0,0-.89.67Q924.92,365.23,909,395.31a1.83,1.83,0,0,0-.16,1.31.78.78,0,0,0,.73.63q24.22-.81,48.43-.87c.47,0,.76-.47.87-.67a1.93,1.93,0,0,0,.18-1.32q-7.85-29.79-16.56-59.32A1,1,0,0,0,942.17,334.61Z"/><path class="cls-2" d="M519.64,364.62q-13.45-18.15-27.19-36.11c-1.44-1.87-5.14-.56-6.65,2.34Q472,357.13,458.44,383.5c-1.36,2.65.55,4.79,3.42,3.9q27.21-8.44,54.53-16.51C519.27,370,521.08,366.56,519.64,364.62Z"/><path class="cls-3" d="M745.1,309.61a820.46,820.46,0,0,0-222.17-73.1c-10.82-2-10-14.89-5.83-22.25,5.22-9.27,15.26-18.11,26.68-17.11A820.81,820.81,0,0,1,766,270.25c9.57,5.62,8.6,18.68,4.08,27.2S755.25,314,745.1,309.61ZM541.89,200.73c-9.35-.83-17.68,6.23-21.83,14-4.73,8.82-2.55,17,4.76,18.24A820.33,820.33,0,0,1,747,306c6.58,3.32,15.71-1.09,20.42-10s3.23-18.91-3.35-22.24A820.56,820.56,0,0,0,541.89,200.73Z"/><path class="cls-4" d="M753,358.49a11.9,11.9,0,0,0-1.45-.26l-14.85,7c-.41.47-.8,1-1.18,1.48Z"/><path class="cls-4" d="M757.2,360.36l-.92-.51-23.11,10.78c-.19.4-.4.8-.57,1.2Q744.9,366.09,757.2,360.36Z"/><path class="cls-4" d="M760.91,362.46l-.91-.52q-14.29,6.62-28.58,13.27c-.09.35-.17.7-.24,1Z"/><path class="cls-4" d="M764.62,364.58l-.91-.53-33,15.26c0,.32,0,.63-.05.95Q747.62,372.4,764.62,364.58Z"/><path class="cls-4" d="M768.31,366.71c-.36-.21-.55-.31-.91-.53l-36.69,16.88c0,.29.06.59.11.87Q749.55,375.32,768.31,366.71Z"/><path class="cls-4" d="M772,368.87l-.91-.53q-19.86,9.06-39.7,18.16c.09.27.16.55.26.81Q751.8,378.09,772,368.87Z"/><path class="cls-4" d="M775.66,371.05l-.9-.54-42,19.13c.14.25.28.5.43.73Q754.41,380.7,775.66,371.05Z"/><path class="cls-4" d="M779.32,373.25l-.9-.55q-21.81,9.85-43.59,19.74c.22.22.46.41.69.61Q757.41,383.15,779.32,373.25Z"/><path class="cls-4" d="M783,375.46l-.9-.54q-22,9.9-44,19.83l.91.51Z"/><path class="cls-4" d="M786.59,377.7l-.89-.55q-22,9.83-44,19.69l.92.52Q764.63,387.52,786.59,377.7Z"/><path class="cls-4" d="M790.22,380l-.9-.56L745.46,399l.91.53Q768.29,389.72,790.22,380Z"/><path class="cls-4" d="M793.82,382.24l-.88-.57-43.79,19.42.91.53Q771.95,391.92,793.82,382.24Z"/><path class="cls-4" d="M797.42,384.54l-.88-.57q-21.85,9.61-43.71,19.27l.91.54Q775.58,394.15,797.42,384.54Z"/><path class="cls-4" d="M801,386.85l-.88-.57q-21.82,9.56-43.62,19.14l.9.53Z"/><path class="cls-4" d="M804.58,389.19l-.88-.58-43.53,19,.89.54Q782.83,398.67,804.58,389.19Z"/><path class="cls-4" d="M808.14,391.55l-.87-.59-43.46,18.86.9.55Q786.43,400.95,808.14,391.55Z"/><path class="cls-4" d="M811.69,393.92l-.87-.58q-21.69,9.35-43.37,18.72l.89.55Q790,403.27,811.69,393.92Z"/><path class="cls-4" d="M815.22,396.32l-.87-.6-43.28,18.59.89.56Q793.59,405.59,815.22,396.32Z"/><path class="cls-4" d="M818.74,398.73l-.86-.59-43.2,18.44.89.56Z"/><path class="cls-4" d="M822.25,401.17l-.86-.6-43.11,18.3.89.57Z"/><path class="cls-4" d="M825.75,403.62l-.86-.6-43,18.17.88.57Z"/><path class="cls-4" d="M829.24,406.1l-.86-.62-42.93,18,.87.58Q807.79,415.1,829.24,406.1Z"/><path class="cls-4" d="M832.71,408.59l-.86-.62L789,425.87l.87.58Z"/><path class="cls-4" d="M836.17,411.1l-.85-.62-42.76,17.76.87.59Z"/><path class="cls-4" d="M839.61,413.63l-.85-.62L796.1,430.64l.87.59Z"/><path class="cls-4" d="M843,416.18l-.84-.63-42.58,17.5.87.59Z"/><path class="cls-4" d="M846.46,418.75l-.84-.63-42.48,17.36.86.6Z"/><path class="cls-4" d="M849.87,421.34l-.84-.63q-21.21,8.6-42.39,17.22l.86.61Z"/><path class="cls-4" d="M853.26,424l-.84-.64q-21.15,8.54-42.3,17.09l.86.61Z"/><path class="cls-4" d="M856.63,426.58l-.83-.65-42.2,17,.85.61Z"/><path class="cls-4" d="M860,429.23l-.83-.66Q838.11,437,817.06,445.4l.85.62Z"/><path class="cls-4" d="M863.35,431.89l-.83-.65-42,16.68.84.63Z"/><path class="cls-4" d="M866.68,434.58l-.82-.67q-21,8.28-41.92,16.56l.84.63Z"/><path class="cls-4" d="M870,437.28l-.81-.67L827.36,453l.84.63Q849.11,445.5,870,437.28Z"/><path class="cls-4" d="M873.31,440l-.81-.67-41.73,16.29.84.64Q852.46,448.15,873.31,440Z"/><path class="cls-4" d="M876.6,442.74l-.81-.67-41.63,16.16.84.64Q855.81,450.83,876.6,442.74Z"/><path class="cls-4" d="M879.88,445.5l-.8-.68q-20.77,8-41.54,16l.83.65Q859.13,453.52,879.88,445.5Z"/><path class="cls-4" d="M883.15,448.28l-.81-.68-41.43,15.89.83.66Z"/><path class="cls-4" d="M886.4,451.08l-.8-.69-41.34,15.77.83.65Q865.75,459,886.4,451.08Z"/><path class="cls-4" d="M889.63,453.9l-.79-.7Q868.22,461,847.6,468.84l.82.66Q869,461.72,889.63,453.9Z"/><path class="cls-4" d="M892.85,456.73l-.79-.7-41.13,15.51.81.66Q872.31,464.49,892.85,456.73Z"/><path class="cls-4" d="M896.06,459.58l-.79-.7q-20.52,7.68-41,15.37l.81.68Z"/><path class="cls-4" d="M899.25,462.45c-.32-.28-.48-.42-.79-.71Q878,469.38,857.53,477l.81.68Q878.8,470.08,899.25,462.45Z"/><path class="cls-4" d="M902.42,465.34l-.78-.71q-20.42,7.56-40.83,15.12l.81.68Q882,472.9,902.42,465.34Z"/><path class="cls-4" d="M905.58,468.25l-.78-.72q-20.35,7.5-40.72,15l.8.69Q885.24,475.76,905.58,468.25Z"/><path class="cls-4" d="M908.73,471.18l-.78-.73q-20.31,7.44-40.62,14.86l.8.69Q888.44,478.62,908.73,471.18Z"/><path class="cls-4" d="M911.85,474.12c-.3-.29-.46-.43-.76-.73q-20.26,7.38-40.52,14.74l.8.69Q891.62,481.5,911.85,474.12Z"/><path class="cls-4" d="M915,477.08l-.77-.73Q894,483.66,873.79,491l.8.7Z"/><path class="cls-4" d="M918.07,480.07l-.76-.74Q897.15,486.58,877,493.8l.79.71Q897.94,487.31,918.07,480.07Z"/><path class="cls-4" d="M921.15,483.06l-.76-.74q-20.08,7.19-40.19,14.35l.78.71Q901.08,490.26,921.15,483.06Z"/><path class="cls-4" d="M924.22,486.08l-.76-.74q-20,7.11-40.09,14.22c.32.28.47.43.78.71Q904.19,493.21,924.22,486.08Z"/><path class="cls-4" d="M927.27,489.12l-.75-.75q-20,7-40,14.09l.77.72Q907.31,496.17,927.27,489.12Z"/><path class="cls-4" d="M930.3,492.17l-.74-.75q-19.93,7-39.87,14l.77.73Q910.4,499.17,930.3,492.17Z"/><path class="cls-4" d="M933.32,495.24l-.74-.76q-19.87,6.93-39.76,13.84l.77.73Q913.47,502.18,933.32,495.24Z"/><path class="cls-4" d="M936.33,498.33l-.74-.76q-19.83,6.87-39.65,13.71c.3.3.45.44.76.73Q916.53,505.2,936.33,498.33Z"/><path class="cls-4" d="M939.31,501.44l-.73-.77q-19.77,6.81-39.54,13.59l.76.74Q919.56,508.24,939.31,501.44Z"/><path class="cls-4" d="M942.14,504.61c-.2-.28-.42-.54-.64-.8q-19.68,6.74-39.38,13.44l.76.75Q922.52,511.32,942.14,504.61Z"/><path class="cls-4" d="M944,508.12c-.12-.3-.23-.61-.36-.9q-19.21,6.54-38.45,13l.76.74Q925,514.59,944,508.12Z"/><path class="cls-4" d="M945.08,511.91c-.06-.32-.13-.64-.2-1q-18.32,6.2-36.63,12.35l.75.75Q927,518,945.08,511.91Z"/><path class="cls-4" d="M945.53,515.91c0-.34,0-.67-.06-1q-17.09,5.75-34.18,11.45l.74.75Q928.8,521.54,945.53,515.91Z"/><path class="cls-4" d="M945.42,520.1c0-.35,0-.7.06-1.05q-15.57,5.21-31.17,10.37l.74.75Q930.24,525.16,945.42,520.1Z"/><path class="cls-4" d="M944.68,524.49c.08-.37.16-.73.23-1.1l-27.59,9.11.73.76Q931.37,528.9,944.68,524.49Z"/><path class="cls-4" d="M943.19,529.12c.16-.39.33-.77.47-1.17-9.33,3.07-14,4.6-23.35,7.65l.73.77C929.91,533.48,934.35,532,943.19,529.12Z"/><path class="cls-4" d="M940.55,534.13q.42-.61.81-1.29c-7.2,2.35-10.8,3.53-18,5.86.3.26.59.5.9.72Z"/><path class="cls-4" d="M936.59,538.53l-8.14,2.62A10.89,10.89,0,0,0,936.59,538.53Z"/><path class="cls-3" d="M749.81,520.05q-31.69-21.25-65-39.73c-24.15-13-48.72-24.78-73.93-35.54-23.54-9.65-47.34-18.27-71.61-25.92-8.65-2.26-17.68,2.66-21.65,10.28s-.59,15.73,7.27,18.15c24.26,7.65,48.06,16.27,71.6,25.92,25.22,10.76,49.79,22.57,73.94,35.54q33.35,18.54,65,39.72c6.79,4.63,15.36,2.41,19.22-5.41C758.42,535.43,757,525.34,749.81,520.05Z"/><path class="cls-5" d="M991,710.76c-5-8-10.15-16-15.47-23.81-11.83-17.21-24.17-33.93-37.12-50.32q-16-19.65-33-38.4c-3.68-4-9.17-2.49-12.13,3.23s-2.26,13.45,1.42,17.46q17,18.81,33,38.41,19.43,24.57,37.12,50.32,8,11.73,15.47,23.81c2.93,4.7,7.59,4,10.55-1.69S993.89,715.46,991,710.76Z"/><path class="cls-5" d="M939.29,388.39a842.37,842.37,0,0,0-125.44-92.68,1.92,1.92,0,0,1-.33-2.55c.52-1,1.52-1.45,2.22-1a842.37,842.37,0,0,1,125.44,92.68,2.46,2.46,0,0,1,.16,2.79C940.82,388.59,939.9,388.94,939.29,388.39Z"/><path class="cls-3" d="M1102.85,499.76q-7.47-12.06-15.45-23.82-17.73-25.83-37.09-50.35a822.94,822.94,0,0,0-134.4-131.12c-4.29-3.27-10.51-.74-13.88,5.64s-2.61,14.19,1.67,17.47a823,823,0,0,1,134.41,131.11q19.41,24.58,37.08,50.35,8,11.74,15.46,23.82c2.93,4.71,8,3.36,11.38-3S1105.78,504.47,1102.85,499.76Z"/><path class="cls-5" d="M781.93,41.81c-13.37-4.92-26.9-9.41-40.52-13.59q-23.26-6.93-46.8-12.71c-8.81-1.78-17.84,3-21.88,10.82s-.93,16.24,7.19,18.18q23.57,5.79,46.79,12.71c13.62,4.18,27.15,8.67,40.52,13.58,8.52,2.77,17.67-1.83,21.64-9.5C793,53.39,789.74,44.67,781.93,41.81Z"/><path class="cls-6" d="M614.67,421.87a822.92,822.92,0,0,0-204.12-52.48c-.82-.1-1.13-.87-.68-1.73a2.54,2.54,0,0,1,2.29-1.39,822.32,822.32,0,0,1,204.11,52.49,1.46,1.46,0,0,1,.57,2.12A1.8,1.8,0,0,1,614.67,421.87Z"/><path class="cls-6" d="M213,296A820.36,820.36,0,0,0,.81,372.68c-.81.43-1,0-.54-1a7,7,0,0,1,2.37-2.53,820.9,820.9,0,0,1,212.2-76.72c.84-.17,1.1.47.6,1.44A4.26,4.26,0,0,1,213,296Z"/><path class="cls-5" d="M628.36,116.25A862.32,862.32,0,0,0,519.2,100.18a795.62,795.62,0,0,0-272.13,28.63A862.58,862.58,0,0,0,136.72,170.4c-14.2,7.09-26.55,22.36-34.21,35-3.87,6.38-5.21,24.2,7.9,15a861.51,861.51,0,0,1,110.34-41.59,795.92,795.92,0,0,1,272.13-28.64,862.23,862.23,0,0,1,109.17,16.08c14.24,2.16,27.64-8.81,34.21-20.3C642,135.92,641.39,119.82,628.36,116.25Z"/><path class="cls-2" d="M1196.92,760.72c-5.06-23.18-10.94-46-17.73-68.74a837.76,837.76,0,0,0-52.44-128.55c-6.83-15.2-19.7-.92-24,5.92-7.34,11.62-9.52,31.79-3.11,45.33a838.06,838.06,0,0,1,52.44,128.54c6.79,22.73,12.67,45.56,17.74,68.74.75,16.21,15,4.73,18.18-2.42C1194.06,796,1200.15,776.51,1196.92,760.72Z"/><path class="cls-7" d="M903.77,120.72a874.61,874.61,0,0,0-97.88-49.11,811.13,811.13,0,0,0-260-59.2,853.66,853.66,0,0,0-111.72,2.45c-13.7,1.29-26.26,12.62-32.83,23.8-5.19,8.83-2.48,22.18,10.29,20.07a851.8,851.8,0,0,1,111.71-2.44,811.12,811.12,0,0,1,260.06,59.19,876.32,876.32,0,0,1,97.88,49.11c11,5.72,24.57-.94,29.87-11.33C916.52,142.65,914.07,127.61,903.77,120.72Z"/><path class="cls-2" d="M552.46,217.24c-16.48-3.06-33-5.69-49.6-7.91a834.32,834.32,0,0,0-137.3-5c-17.08,1-34.06,2.52-51.07,4.44-5.51.67-12.76,6.53-16.19,13s-1.74,11.11,3.77,10.44c17-1.93,34-3.41,51.07-4.44a835.42,835.42,0,0,1,137.3,5c16.62,2.23,33.11,4.86,49.6,7.92,5.31,1,12.37-3.32,15.8-9.8S557.77,218.27,552.46,217.24Z"/><path class="cls-5" d="M1054.44,336.66q-16.95-18.72-34.8-36.5a850.09,850.09,0,0,0-104.95-86.45q-20.72-14-42.05-27c-4.62-2.76-10.91-.1-14.09,6s-2,13.23,2.61,16q21.38,13,42,27a851.15,851.15,0,0,1,104.95,86.45q17.9,17.83,34.8,36.51c3.63,4.06,9.14,2.42,12.32-3.64S1058.06,340.73,1054.44,336.66Z"/><path class="cls-2" d="M966.08,191.25C962.21,199,952.3,203.79,945,198.3c-7.59-5.68-8.12-17.31-4.37-25.54,3.25-7.14,14.08-12.06,20.94-6.71C969.13,172,970.24,182.91,966.08,191.25Z"/><path class="cls-8" d="M662.92,361.14c-10.21-4.9-10-17.94-5.35-26.62,4.94-9.18,16.58-17.92,26.61-13.7s9.64,18.55,5,27.27C684.3,357.25,673.67,365.05,662.92,361.14Zm19.39-36.79c-9-3.17-17.79,4.1-22,11.28-3.71,6.35-3.35,18.92,4.39,22.08,8.44,3.43,17.72-3.27,21.75-10.85C690.32,339.65,690.81,328.55,682.31,324.35Z"/><path class="cls-3" d="M790.16,569.77c-3,5.87-9.17,7.33-14,3.56s-6.56-11.34-3.59-17.22,9.48-7.81,14.35-4S793.13,563.89,790.16,569.77Z"/><path class="cls-3" d="M1057,696.77c-3.8,7.19-9.21,8.35-12.22,2.72s-2.49-15.9,1.3-23.1,9.43-8.58,12.44-3S1060.79,689.57,1057,696.77Z"/><path class="cls-7" d="M1017.94,527.47c-3.91,7.38-10.13,9.3-14,4.37s-3.87-14.83,0-22.21,10.27-9.45,14.12-4.52S1021.86,520.08,1017.94,527.47Z"/><path class="cls-5" d="M866.41,592.43c-4.55-4.48-5.57-13.39-2.09-20.12S874.49,563.55,879,568s5.28,13.8,1.79,20.53S871,596.91,866.41,592.43Zm12.21-23.6c-4.26-4.19-10.5-2.3-13.76,4s-2.31,14.64,1.95,18.83,10.24,2.66,13.5-3.63S882.88,573,878.62,568.83Z"/><path class="cls-5" d="M260.29,309.44c-6.61,1-9.07-3.9-5.42-11.21s12-14.28,18.65-15.33,9,4.23,5.32,11.56S266.89,308.41,260.29,309.44Zm12.8-25.67c-6.19,1-14,7.49-17.45,14.33s-1.11,11.46,5.07,10.49,13.94-7.17,17.36-14S279.27,282.79,273.09,283.77Z"/><path class="cls-5" d="M639.61,84.11c-6.22-1.33-8.35-8-4.83-14.78s11.38-11.18,17.6-9.85,8.48,7.88,5,14.67S645.83,85.44,639.61,84.11ZM652,60.26c-5.82-1.25-13.17,2.86-16.47,9.21S634.21,82.06,640,83.3s13.28-3,16.58-9.31S657.8,61.5,652,60.26Z"/><path class="cls-3" d="M571.81,165.6c-3.86,7.31-11.94,12.36-18,11.34s-7.89-7.74-4-15.05,11.92-12.44,18-11.41S575.68,158.29,571.81,165.6Z"/><path class="cls-2" d="M652.19,510.82a832.47,832.47,0,0,0-181-67.58c-5.6-1.33-8.15-6.45-5.53-11.69s9.45-8.66,15.05-7.32a832,832,0,0,1,181,67.58c5.09,2.65,7,9.3,4.34,14.55A10.09,10.09,0,0,1,652.19,510.82ZM480.35,424.93c-5.21-1.24-11.53,1.91-14,6.78s-.08,9.64,5.13,10.88a831.87,831.87,0,0,1,181,67.58A9.39,9.39,0,0,0,665.39,506c2.44-4.87.69-11-4-13.5A832.15,832.15,0,0,0,480.35,424.93Z"/><path class="cls-3" d="M1138.82,620.6c-2.93-7.94-1.51-17.38,2.26-24.68,3.85-7.48,9.72-8.56,12.15-2.58,3.07,7.6,1.41,17.39-2.36,24.69C1147,625.51,1141.52,626.69,1138.82,620.6Zm13.94-26.39c-2.52-5.7-7.64-4.62-11.36,2.41s-4.64,17.39-2.11,23.09,7.56,4.63,11.28-2.4S1155.29,599.92,1152.76,594.21Z"/><path class="cls-4" d="M720.67,131.16a12.15,12.15,0,0,0-1.8.07c-3.81,2-5.72,3-9.55,5a18.59,18.59,0,0,0-1.43,1.62C713,135.16,715.58,133.81,720.67,131.16Z"/><path class="cls-4" d="M725.3,132.25l-1-.35c-7.52,3.91-11.31,5.9-18.91,10-.18.37-.35.75-.5,1.13C713.11,138.61,717.19,136.46,725.3,132.25Z"/><path class="cls-4" d="M729.32,133.68l-1-.35q-12.23,6.3-24.35,12.82c-.06.32-.11.63-.15.95C712.3,142.58,720.78,138.08,729.32,133.68Z"/><path class="cls-4" d="M733.33,135.14l-1-.36q-14.39,7.38-28.61,15c0,.28,0,.55.07.83Q718.51,142.75,733.33,135.14Z"/><path class="cls-4" d="M737.34,136.61l-1-.36q-16.07,8.2-32,16.74a7.76,7.76,0,0,0,.3.72Q720.92,145,737.34,136.61Z"/><path class="cls-4" d="M741.33,138.11l-1-.37q-17.28,8.85-34.42,18a7.68,7.68,0,0,0,.55.59Q723.83,147.06,741.33,138.11Z"/><path class="cls-4" d="M745.32,139.63l-1-.38q-18,9.15-35.75,18.6c.29.14.6.27.91.39Q727.34,148.79,745.32,139.63Z"/><path class="cls-4" d="M749.3,141.17l-1-.39q-18,9.12-35.8,18.54l1,.35Q731.33,150.27,749.3,141.17Z"/><path class="cls-4" d="M753.27,142.73l-1-.39q-18,9.06-35.76,18.41l1,.36Q735.33,151.78,753.27,142.73Z"/><path class="cls-4" d="M757.23,144.31l-1-.39q-17.94,9-35.72,18.29l1,.37Q739.31,153.29,757.23,144.31Z"/><path class="cls-4" d="M761.18,145.91l-1-.4q-17.91,8.94-35.66,18.18l1,.37Q743.29,154.83,761.18,145.91Z"/><path class="cls-4" d="M765.13,147.54l-1-.41q-17.89,8.9-35.62,18.07l1,.37Q747.25,156.41,765.13,147.54Z"/><path class="cls-4" d="M769.06,149.18l-1-.4q-17.87,8.82-35.57,17.94l1,.38Q751.21,158,769.06,149.18Z"/><path class="cls-4" d="M773,150.85l-1-.41q-17.84,8.76-35.52,17.83l1,.38Q755.17,159.61,773,150.85Z"/><path class="cls-4" d="M776.9,152.54l-1-.42q-17.82,8.72-35.47,17.71l1,.39Q759.11,161.23,776.9,152.54Z"/><path class="cls-4" d="M780.81,154.25l-1-.42q-17.79,8.64-35.42,17.59l1,.4Q763,162.88,780.81,154.25Z"/><path class="cls-4" d="M784.71,156l-1-.43Q766,164.15,748.38,173l1,.4Q767,164.57,784.71,156Z"/><path class="cls-4" d="M788.59,157.73l-1-.43q-17.75,8.53-35.32,17.36l1,.41Q770.87,166.25,788.59,157.73Z"/><path class="cls-4" d="M792.47,159.51l-1-.44q-17.71,8.48-35.27,17.25l1,.41Q774.77,168,792.47,159.51Z"/><path class="cls-4" d="M796.34,161.3l-1-.44q-17.68,8.41-35.22,17.13l1,.42Q778.66,169.7,796.34,161.3Z"/><path class="cls-4" d="M800.2,163.11l-1-.44q-17.67,8.36-35.17,17l1,.42Q782.56,171.46,800.2,163.11Z"/><path class="cls-4" d="M804.05,165l-.95-.45q-17.64,8.3-35.11,16.9l1,.43Q786.43,173.24,804.05,165Z"/><path class="cls-4" d="M807.88,166.81l-.94-.46q-17.61,8.24-35.06,16.79l1,.43Q790.3,175,807.88,166.81Z"/><path class="cls-4" d="M811.71,168.68l-.94-.46q-17.58,8.19-35,16.68l1,.43Q794.15,176.86,811.71,168.68Z"/><path class="cls-4" d="M815.53,170.58l-.94-.47q-17.55,8.13-35,16.57l1,.44Q798,178.71,815.53,170.58Z"/><path class="cls-4" d="M819.34,172.5l-.94-.47q-17.52,8.07-34.89,16.45l1,.44Q801.83,180.57,819.34,172.5Z"/><path class="cls-4" d="M823.14,174.44l-.94-.48q-17.49,8-34.84,16.34l.95.45Q805.67,182.44,823.14,174.44Z"/><path class="cls-4" d="M826.92,176.4l-.93-.48q-17.46,8-34.78,16.22l.94.46Q809.48,184.35,826.92,176.4Z"/><path class="cls-4" d="M830.7,178.38l-.93-.49Q812.33,185.8,795,194l1,.47Q813.27,186.27,830.7,178.38Z"/><path class="cls-4" d="M834.46,180.38l-.92-.49q-17.41,7.85-34.67,16l.94.46Q817.08,188.22,834.46,180.38Z"/><path class="cls-4" d="M838.22,182.41l-.92-.5q-17.38,7.78-34.62,15.88l.94.47Q820.86,190.19,838.22,182.41Z"/><path class="cls-4" d="M842,184.45l-.92-.51q-17.34,7.74-34.55,15.78l.93.47Q824.63,192.18,842,184.45Z"/><path class="cls-4" d="M845.7,186.51l-.92-.51c-11.57,5.08-23,10.34-34.5,15.66l.94.48C822.67,196.83,834.14,191.58,845.7,186.51Z"/><path class="cls-4" d="M849.42,188.59l-.92-.51c-11.54,5-23,10.27-34.43,15.55l.93.49C826.43,198.84,837.88,193.63,849.42,188.59Z"/><path class="cls-4" d="M853.13,190.7l-.91-.52c-11.53,5-23,10.19-34.38,15.44l.93.49C830.18,200.87,841.61,195.69,853.13,190.7Z"/><path class="cls-4" d="M856.83,192.82l-.91-.53c-11.51,5-22.92,10.12-34.32,15.33l.93.5C833.92,202.92,845.33,197.78,856.83,192.82Z"/><path class="cls-4" d="M860.52,195l-.91-.53c-11.48,4.93-22.88,10-34.26,15.22l.93.5C837.65,205,849,199.88,860.52,195Z"/><path class="cls-4" d="M864.19,197.13l-.9-.54c-11.46,4.89-22.84,10-34.2,15.11.37.2.56.3.92.51C841.36,207.08,852.74,202,864.19,197.13Z"/><path class="cls-4" d="M867.86,199.31l-.9-.54c-11.44,4.86-22.8,9.9-34.14,15l.92.51C845.07,209.19,856.42,204.16,867.86,199.31Z"/><path class="cls-4" d="M871.51,201.51l-.9-.54c-11.42,4.82-22.75,9.82-34.07,14.89l.92.51C848.77,211.32,860.1,206.32,871.51,201.51Z"/><path class="cls-4" d="M874.86,203.86a8.17,8.17,0,0,0-.69-.63C862.8,208,851.51,213,840.25,218l.91.52Q857.93,211,874.86,203.86Z"/><path class="cls-4" d="M876.93,206.75c-.12-.25-.25-.51-.4-.76Q860.15,212.85,844,220.1l.9.52Q860.83,213.51,876.93,206.75Z"/><path class="cls-4" d="M878,210.06c-.06-.29-.12-.57-.19-.85q-15.18,6.34-30.22,13l.91.53Q863.23,216.27,878,210.06Z"/><path class="cls-4" d="M878.33,213.72q0-.48,0-.93-13.56,5.73-27,11.63l.91.53Q865.2,219.21,878.33,213.72Z"/><path class="cls-4" d="M877.74,217.75c.09-.35.16-.69.23-1-9.13,3.83-13.73,5.81-23,9.88l.9.55C864.68,223.28,869.06,221.39,877.74,217.75Z"/><path class="cls-4" d="M876.14,221.89c.13-.25.24-.5.36-.76-7.11,3-10.69,4.54-17.89,7.68l.59.36a3.65,3.65,0,0,0,.34.18c6.57-2.87,9.85-4.28,16.35-7Z"/><path class="cls-4" d="M870,228.66a16.11,16.11,0,0,0,2.72-2.1c-3.64,1.55-5.46,2.33-9.12,3.91a10.5,10.5,0,0,0,3-.34Z"/><path class="cls-1" d="M1011.69,596.9a5.33,5.33,0,0,1-.82-2.28,9.53,9.53,0,0,1,1-5.67q6.84-12.94,13.7-25.89c.9-1.71,2.14-2.62,3.31-2.44s2,1.41,2.31,3.3q2,14.48,3.9,29a9.94,9.94,0,0,1-1,5.75c-.9,1.7-2.11,2.58-3.25,2.37-7-1.28-10.5-1.9-17.6-3.09A2.26,2.26,0,0,1,1011.69,596.9Zm16.77-31.7a.63.63,0,0,0-.37-.25c-.14,0-.49,0-.8.6q-6.85,12.93-13.7,25.89a2.34,2.34,0,0,0-.24,1.38c0,.22.15.74.56.8,7.12,1.17,10.65,1.78,17.64,3,.4.07.69-.38.79-.58a2.41,2.41,0,0,0,.26-1.4q-1.92-14.48-3.95-28.93A1.39,1.39,0,0,0,1028.46,565.2Z"/><path class="cls-1" d="M692.69,412.33c-3.59-7.05-5.38-10.56-9-17.55-1.24-2.42-4.7-1.79-6.21,1.09-4.38,8.36-6.53,12.49-10.75,20.6-1.46,2.8.15,5.73,2.88,5.3,7.9-1.24,11.84-1.85,19.73-3A4.74,4.74,0,0,0,692.69,412.33Z"/><path class="cls-5" d="M676.23,127.59c-4-6-6-9-10-14.85-1.4-2-5-.91-6.56,2-4.41,8.42-6.65,12.68-11.17,21.29-1.57,3,.15,5.53,3.09,4.62,8.51-2.66,12.75-3.95,21.2-6.44C675.68,133.34,677.61,129.67,676.23,127.59Z"/><path class="cls-2" d="M842.4,548.8c-1.83-5.41-2.76-8.11-4.61-13.49-.74-2.14-3-2.19-4.09-.12-2.72,5.24-4.06,7.83-6.7,12.95-1,2-.09,4.64,1.7,4.72l11.31.55C841.8,553.5,843.13,550.94,842.4,548.8Z"/><path class="cls-8" d="M1072.24,396.47a4.27,4.27,0,0,1-.78-1.84,7.28,7.28,0,0,1,.68-4.61c3.46-6.61,5.18-9.88,8.56-16.36.7-1.34,1.72-2,2.73-1.88s1.78,1.16,2.09,2.66c1.47,7.25,2.19,10.9,3.58,18.25a7.24,7.24,0,0,1-.67,4.58c-.71,1.36-1.73,2.07-2.73,1.9-4.81-.8-7.24-1.17-12.14-1.88A2.08,2.08,0,0,1,1072.24,396.47ZM1083,375.92a.23.23,0,0,0-.14-.08c-.08,0-.19,0-.29.19-3.38,6.48-5.1,9.76-8.57,16.37a.73.73,0,0,0-.07.48c0,.12.08.26.22.28,4.9.71,7.33,1.09,12.15,1.9.14,0,.23-.1.29-.2a.78.78,0,0,0,.07-.49c-1.39-7.35-2.11-11-3.58-18.25A.55.55,0,0,0,1083,375.92Z"/><path class="cls-5" d="M879.88,280.35c-2-5.27-3-7.9-4.94-13.11-.79-2.07-3.29-1.8-4.49.48l-7.64,14.44c-1.21,2.3-.23,4.89,1.77,4.67,5-.56,7.57-.83,12.58-1.33C879.14,285.31,880.66,282.44,879.88,280.35Z"/><path class="cls-1" d="M1078.83,812.94c-2.16-5.83-3.26-8.73-5.53-14.49a853.76,853.76,0,0,0-48.6-101.18q-6.75-11.79-14-23.35c-1.54-2.48-4.19-1.86-5.88,1.36s-1.77,7.8-.22,10.29q7.2,11.52,14,23.35a853,853,0,0,1,48.6,101.18c2.26,5.76,3.37,8.66,5.53,14.48,1,2.84,3.24,2.57,4.92-.65S1079.88,815.78,1078.83,812.94Z"/><path class="cls-1" d="M469.87,456.41c-5.68-1.39-8.53-2.06-14.24-3.34A861.28,861.28,0,0,0,349,436.79c-8.85-.74-17.74-1.32-26.61-1.72a8.28,8.28,0,0,0-7.28,4c-1.12,2.32.33,4.24,3.2,4.37,8.88.4,17.77,1,26.62,1.72a863,863,0,0,1,106.67,16.28c5.71,1.28,8.56,1.95,14.24,3.34,2.77.67,5.89-.59,7-2.91S472.63,457.08,469.87,456.41Z"/><path class="cls-1" d="M914.49,64.23l-5.23-2.93A853.84,853.84,0,0,0,778.51,3.51c-4.1-1.38-6.16-2.06-10.29-3.39a2.37,2.37,0,0,0-2.83,1,1.7,1.7,0,0,0,1.19,2.35c4.12,1.33,6.18,2,10.29,3.39A852.87,852.87,0,0,1,907.62,64.7c2.09,1.17,3.14,1.75,5.22,2.93a1.87,1.87,0,0,0,2.67-.66A2.18,2.18,0,0,0,914.49,64.23Z"/><path class="cls-8" d="M317,363.36A803.89,803.89,0,0,0,95.1,397.81c-7.17,2.23-9.94-2-5.95-9.43,4.23-7.89,11.63-14.93,20.23-18.1a804.27,804.27,0,0,1,221.94-34.45c7.19,0,9.63,6.4,5.79,14C333.67,356.56,324.87,363.11,317,363.36ZM109,371.1c-8.09,3-15.07,9.6-19,17-3.76,7-1.15,11,5.6,8.9a804.33,804.33,0,0,1,221.94-34.45c6.78,0,15.2-5.64,18.91-12.8s1.32-13.17-5.46-13.13A804,804,0,0,0,109,371.1Z"/><path class="cls-9" d="M242.82,216.61c-3.52-2.52-5.27-3.76-8.78-6.17-1.45-1-5.31,1.64-6.95,4.74l-9.92,18.71c-1.64,3.09.18,4.32,3.27,2.22,7.47-5.07,11.21-7.58,18.69-12.54C242.22,221.52,244.27,217.65,242.82,216.61Z"/></svg>